PathFileType	4	(X/Y/Z)	RBDS024\RBDS024runT45.trc
DataRate	CameraRate	NumFrames	NumMarkers	Units	OrigDataRate	OrigDataStartFrame	OrigNumFrames
150.000000	150.000000	4	32	mm	150.000000	2812	4500
Frame#	Time	L.ASIS			L.Heel.Bottom			L.Heel.Lateral			L.Heel.Top			L.Iliac.Crest			L.MT5			L.PSIS			L.Shank.Bottom.Lateral			L.Shank.Bottom.Medial			L.Shank.Top.Lateral			L.Shank.Top.Medial			L.Thigh.Bottom.Lateral			L.Thigh.Bottom.Medial			L.Thigh.Top.Lateral			L.Thigh.Top.Medial			R.ASIS			R.ASY			R.Heel.Bottom			R.Heel.Lateral			R.Heel.Top			R.Iliac.Crest			R.MT1			R.MT5			R.PSIS			R.Shank.Bottom.Lateral			R.Shank.Bottom.Medial			R.Shank.Top.Lateral			R.Shank.Top.Medial			R.Thigh.Bottom.Lateral			R.Thigh.Bottom.Medial			R.Thigh.Top.Lateral			R.Thigh.Top.Medial			
		X1	Y1	Z1	X2	Y2	Z2	X3	Y3	Z3	X4	Y4	Z4	X5	Y5	Z5	X6	Y6	Z6	X7	Y7	Z7	X8	Y8	Z8	X9	Y9	Z9	X10	Y10	Z10	X11	Y11	Z11	X12	Y12	Z12	X13	Y13	Z13	X14	Y14	Z14	X15	Y15	Z15	X16	Y16	Z16	X17	Y17	Z17	X18	Y18	Z18	X19	Y19	Z19	X20	Y20	Z20	X21	Y21	Z21	X22	Y22	Z22	X23	Y23	Z23	X24	Y24	Z24	X25	Y25	Z25	X26	Y26	Z26	X27	Y27	Z27	X28	Y28	Z28	X29	Y29	Z29	X30	Y30	Z30	X31	Y31	Z31	X32	Y32	Z32	

2813	18.74666666666667	2053.82458317844	951.3486602305969	894.4836773498516	1477.893881297492	146.2197636706517	1034.897451465902	1501.814488577881	145.4150865769414	988.2007856706758	1507.424820864002	178.543331905657	1028.498050390896	1955.56620881104	1024.239973822458	861.5832312016771	1621.637901028356	45.06958814482077	946.4652669355513	1885.995671974969	996.6798095019329	989.7440605372649	1616.057369576678	219.7101179212347	952.9588616424647	1587.189259499807	250.7248503387689	981.3068024036137	1658.94351867406	281.680994732402	922.8778107764291	1631.431323038662	316.708942436659	951.846314563248	1860.348206020511	596.9055770969005	864.1793827370536	1809.220187559718	610.1285011582439	912.3741152799954	1872.238019202265	705.9922093195786	852.5721247009351	1828.136085915639	718.4489789300713	902.9980074067424	2082.910166396412	961.3365781631964	1129.049214439015	2056.415385241583	206.7910323685721	1114.308750105077	1891.394628078005	297.7027738698426	1072.506306884165	1920.941530884966	295.0280014391381	1122.373375110724	1928.193042502749	322.3285556221433	1073.974291193432	2006.215248796712	1028.215503974798	1194.491781743373	2051.928030349151	146.3138998127169	1069.258395544538	2019.314174885246	176.5700063758684	1175.028800456643	1898.699953993866	994.1215170421042	1090.708576457996	2032.046849696962	363.5504253786308	1138.411187651495	2008.230145874927	390.7882026173974	1096.297890189927	2079.945896042293	428.4596755662515	1150.596361601211	2056.345818538116	453.7663977606042	1109.515298074293	2208.062366084742	662.3517638448881	1183.761988186668	2164.447071188187	620.6019336329491	1142.661905881984	2122.783659809086	728.1839310566874	1203.934076357289	2080.958183350643	685.4611218863755	1169.017185326405	
2814	18.75333333333333	2057.601739629702	953.1800010809468	895.3874786094447	1460.662470812309	162.2164855187877	1032.178042896748	1484.120607291412	158.7086048250141	985.3983200747543	1492.283557016649	191.9145612863416	1024.91501487505	1965.219271300193	1027.878887366681	860.730275957133	1594.938259696102	48.24536153499913	945.6406556718057	1889.496943813483	1001.835835815847	987.9979326183562	1598.330288414837	230.0490820751191	950.1289831465064	1570.295216716822	260.3464903559815	980.0763431598813	1641.161634512078	292.6033840663736	921.2523980108908	1614.457120033208	326.8974598094223	951.795153094322	1850.325010276402	605.4573376495414	864.9625993817305	1800.567052511406	620.9000466229317	913.9854459964547	1866.897009900123	713.90212015749	853.1682393025934	1824.142268336495	728.2186839342502	904.2699632147189	2084.623149637193	967.6143248793086	1128.199920766279	2087.970210682571	196.7974526399649	1113.625550603957	1915.87475144695	273.2843469683915	1071.168003406833	1945.339086360521	273.3816306024083	1121.144701813989	1950.461915864899	300.9739291345633	1072.617545847967	2008.609529782138	1035.65574438977	1193.431627720593	2088.927583011912	135.8832884200447	1068.805038915583	2053.42638772679	163.8112087015394	1174.429573886106	1900.856702709806	999.7355580889815	1089.457044497941	2050.716300978616	351.0195184586472	1137.165779887166	2025.19750563289	376.03137679798	1094.605834496145	2093.411013445042	419.5670436952785	1149.078603104616	2068.312229220059	442.6534772562096	1107.590975049442	2210.422501738097	669.2067018880276	1182.114978893106	2166.395400714781	627.3033637009146	1141.654315827174	2125.111361146085	734.6979577382818	1203.435454832982	2083.037273596571	691.9737652374929	1168.934734183798	
2815	18.76	2061.465241252481	954.9650955490964	896.4598443504688	1445.487166639654	178.949389881518	1029.316059701315	1468.167369746277	172.7531747477919	982.4471915065106	1479.135186116258	205.7457065166351	1021.138461525348	1975.202268924984	1031.175820922794	860.0251108957895	1568.950622012669	52.48789219133728	944.5442472236285	1893.066842837532	1007.144773483081	986.2298177169414	1582.180315661371	240.5726195706216	947.0654165402518	1554.933955839714	270.0791500136851	978.5769400995674	1624.931457585801	303.7329318673993	919.4491866272321	1599.045615200437	337.2114665216079	951.579843567814	1841.094541818027	614.2469887800929	865.7711149085527	1792.853085521976	631.6235542857263	915.7017695483436	1862.019737209549	721.9476419790922	853.9210528071129	1820.793160879035	737.859316550449	905.8191019699133	2086.284789610263	973.8594023891256	1127.332738567313	2119.924571268014	187.7310454823793	1112.365575988707	1941.994787666508	249.3431008873071	1069.878461717015	1971.186053819779	252.0203869830911	1119.905869163454	1974.084021466944	279.896598523075	1071.32866979364	2011.183342794868	1043.132597176551	1192.244328860347	2126.267862459154	127.0257059436914	1067.552767752033	2088.238865268998	151.9877369398157	1173.230356065187	1903.125897109512	1005.363262774344	1088.111578598369	2070.029390715299	338.3606976776402	1135.92923588241	2042.991502839683	361.0965448701832	1092.977801156625	2107.250572707495	410.1101580987381	1147.683718565144	2080.812434822836	430.9436343094481	1105.850675422702	2211.960630275858	675.1153335297699	1180.434474624044	2167.264896886735	633.04260989714	1140.962596988953	2126.928377409689	740.6438764857639	1202.81545789485	2084.339670689865	697.958697629319	1169.016286657743	
2816	18.76666666666667	2065.309531844446	956.7447589458541	897.6501911751719	1432.22698648151	196.2835707810924	1026.444195600011	1453.82716451341	187.5148301323673	979.4749481157486	1467.779771276797	219.9784342478672	1017.338255657784	1985.153809992619	1034.155722302606	859.4749851173301	1543.782548314709	58.03656997487946	943.1694732019016	1896.625351634525	1012.540941104831	984.4692132734423	1567.529800691355	251.2418667053477	943.9055483971639	1541.026208979203	279.9446327593129	976.8837570132346	1610.258442542077	314.9587872451417	917.5602308448407	1585.197739356928	347.5984719285921	951.2307485841216	1832.761527752994	623.0474749222168	866.6067523159186	1786.099679235801	642.0540123001894	917.4716910438743	1857.634969238778	729.9510680603881	854.8153810580958	1818.04234582702	747.1787604591401	907.5876323477858	2087.839848496109	979.9212673775323	1126.465200933514	2152.115504431982	179.7176375370011	1110.533299738519	1969.631901491222	226.0885903910802	1068.596518035449	1998.405584205453	231.140494434252	1118.621991689152	1998.948508662646	259.2837069991941	1070.087415757827	2013.8095929151	1050.485290685368	1190.943508411644	2163.697185984289	119.8766326130773	1065.495064233944	2123.63035437562	141.2541912540218	1171.410043183581	1905.459070987114	1010.931749816575	1086.692591683058	2089.917804890846	325.6852780468876	1134.713492040418	2061.52745805883	346.1243937108682	1091.444417609277	2121.443657508332	400.1559610801719	1146.454526573602	2093.802279843713	418.7354731997764	1104.353739136039	2212.652629033499	679.9657002013395	1178.790218624449	2167.047914134459	637.7167675621245	1140.642617030781	2128.201846015653	745.9127320485666	1202.100754050578	2084.856902491032	703.3138955644077	1169.256829155038	
